General :
Format                                   : Matroska
File size                                : 994 MiB
Duration                                 : 1h 24mn
Overall bit rate                         : 1 636 Kbps
Movie name                               : Street Dance 2 2012 720p BRRiP ~ Kishan(Wall.e)

Video :
ID                                       : 1
Format                                   : AVC
Duration                                 : 1h 24mn
Bit rate                                 : 1 000 Kbps
Width                                    : 1 278 pixels
Height                                   : 688 pixels
Display aspect ratio                     : 1.85:1
Frame rate                               : 23.976 fps
Stream size                              : 585 MiB (59%)
Title                                    : Street Dance 2 2012 720p BRRiP ~ Kishan(Wall.e)
Language                                 : English

Audio :
ID                                       : 2
Format                                   : AC-3
Format settings, Endianness              : Big
Codec ID                                 : A_AC3
Duration                                 : 1h 24mn
Bit rate mode                            : Constant
Bit rate                                 : 640 Kbps
Channel(s)                               : 6 channels
Channel positions                        : Front: L C R, Side: L R, LFE
Stream size                              : 389 MiB (39%)
Title                                    : AC3 Audio ~ Kishan(Wall.e)
Language                                 : English
Thanks To LEGi0N For Video Source
